# xmcd CD database file
#
# Track frame offsets:
#	150
#	11542
#	23130
#	33405
#	47655
#	61710
#	76482
#	89080
#	96612
#	110485
#	121572
#	133107
#	145817
#	159092
#
# Disc length: 2291 seconds
#
# Revision: 2
# Processed by: cddbd v1.5.2PL0 Copyright (c) Steve Scherf et al.
# Submitted via: CDex 1.51
#
DISCID=af08f10e
DTITLE=Ray Charles - Walkin' and Talkin'
DYEAR=1995
DGENRE=Blues
TTITLE0=She's On The Ball
TTITLE1=How Long
TTITLE2=Aint That Fine
TTITLE3=Kissa Me Baby
TTITLE4=Walkin' and Talkin'
TTITLE5=I'm Wonderin' and Wonderin'
TTITLE6=Lonely Boy
TTITLE7=Ray's Blues
TTITLE8=Late In The Evening
TTITLE9=I'll Do Anything But Work
TTITLE10=What Have I Done
TTITLE11=You Always Miss The Water
TTITLE12=Alone In The City
TTITLE13=Don't Put All Your Dreams In One Basket
EXTD=YEAR: 1995
EXTT0=
EXTT1=
EXTT2=
EXTT3=
EXTT4=
EXTT5=
EXTT6=
EXTT7=
EXTT8=
EXTT9=
EXTT10=
EXTT11=
EXTT12=
EXTT13=
PLAYORDER=
